<svg width="19" height="14" viewBox="0 0 19 14" fill="none" xmlns="http://www.w3.org/2000/svg">
<path d="M17.552 0H1.07228C0.853738 0 0.644158 0.0819467 0.489628 0.227803C0.335106 0.373668 0.248291 0.571496 0.248291 0.777778V13.2222C0.248291 13.4285 0.335106 13.6264 0.489628 13.7722C0.644158 13.918 0.853738 14 1.07228 14H17.552C17.7705 14 17.9801 13.918 18.1346 13.7722C18.2891 13.6264 18.3759 13.4285 18.3759 13.2222V0.777778C18.3759 0.571496 18.2891 0.373668 18.1346 0.227803C17.9801 0.0819467 17.7705 0 17.552 0ZM16.728 12.4444H1.89626V5.03767L9.0056 7.72256C9.20253 7.79621 9.42171 7.79621 9.61864 7.72256L16.728 5.03767V12.4444ZM16.728 3.36233L9.31212 6.16233L1.89626 3.36233V1.55556H16.728V3.36233Z" fill="black"/>
</svg>
